<svg id="plan" width="500" height="500"><line x1="137.5" y1="97" x2="195.5" y2="51" stroke="black" stroke-width="5"></line><circle cx="137.5" cy="97" r="5" fill="#14029D" stroke="black" stroke-width="5"></circle><circle cx="195.5" cy="51" r="5" fill="#14029D" stroke="black" stroke-width="5"></circle><line x1="195.5" y1="51" x2="262.5" y2="99" stroke="black" stroke-width="5"></line><circle cx="195.5" cy="51" r="5" fill="#14029D" stroke="black" stroke-width="5"></circle><circle cx="262.5" cy="99" r="5" fill="#14029D" stroke="black" stroke-width="5"></circle><line x1="262.5" y1="99" x2="266.5" y2="339" stroke="black" stroke-width="5"></line><circle cx="262.5" cy="99" r="5" fill="#14029D" stroke="black" stroke-width="5"></circle><circle cx="266.5" cy="339" r="5" fill="#14029D" stroke="black" stroke-width="5"></circle><line x1="266.5" y1="339" x2="347.5" y2="388" stroke="black" stroke-width="5"></line><circle cx="266.5" cy="339" r="5" fill="#14029D" stroke="black" stroke-width="5"></circle><circle cx="347.5" cy="388" r="5" fill="#14029D" stroke="black" stroke-width="5"></circle><line x1="347.5" y1="388" x2="295.5" y2="445" stroke="black" stroke-width="5"></line><circle cx="347.5" cy="388" r="5" fill="#14029D" stroke="black" stroke-width="5"></circle><circle cx="295.5" cy="445" r="5" fill="#14029D" stroke="black" stroke-width="5"></circle><line x1="294.5" y1="448" x2="61.5" y2="449" stroke="black" stroke-width="5"></line><circle cx="294.5" cy="448" r="5" fill="#14029D" stroke="black" stroke-width="5"></circle><circle cx="61.5" cy="449" r="5" fill="#14029D" stroke="black" stroke-width="5"></circle><line x1="62.5" y1="449" x2="25.5" y2="394" stroke="black" stroke-width="5"></line><circle cx="62.5" cy="449" r="5" fill="#14029D" stroke="black" stroke-width="5"></circle><circle cx="25.5" cy="394" r="5" fill="#14029D" stroke="black" stroke-width="5"></circle><line x1="25.5" y1="394" x2="109.5" y2="338" stroke="black" stroke-width="5"></line><circle cx="25.5" cy="394" r="5" fill="#14029D" stroke="black" stroke-width="5"></circle><circle cx="109.5" cy="338" r="5" fill="#14029D" stroke="black" stroke-width="5"></circle><line x1="109.5" y1="337" x2="137.5" y2="97" stroke="black" stroke-width="5"></line><circle cx="109.5" cy="337" r="5" fill="#14029D" stroke="black" stroke-width="5"></circle><circle cx="137.5" cy="97" r="5" fill="#14029D" stroke="black" stroke-width="5"></circle></svg>